<mxfile host="app.diagrams.net" modified="2020-11-15T17:34:33.709Z" agent="5.0 (Windows NT 10.0; Win64; x64) AppleWebKit/537.36 (KHTML, like Gecko) Chrome/86.0.4240.193 Safari/537.36" etag="3tbGNtg7bt7Rmi7ri4MV" version="13.9.8" type="github">
  <diagram id="lbrrSSedKV_Fb-H0VtAG" name="Page-1">
    <mxGraphModel dx="2062" dy="1097" grid="1" gridSize="10" guides="1" tooltips="1" connect="1" arrows="1" fold="1" page="1" pageScale="1" pageWidth="827" pageHeight="1169" math="0" shadow="0">
      <root>
        <mxCell id="0" />
        <mxCell id="1" parent="0" />
        <mxCell id="bED7vvz_2XlA9zILl8WS-3" style="edgeStyle=orthogonalEdgeStyle;rounded=0;orthogonalLoop=1;jettySize=auto;html=1;entryX=0.5;entryY=0;entryDx=0;entryDy=0;" edge="1" parent="1" source="bED7vvz_2XlA9zILl8WS-1" target="bED7vvz_2XlA9zILl8WS-2">
          <mxGeometry relative="1" as="geometry" />
        </mxCell>
        <mxCell id="bED7vvz_2XlA9zILl8WS-1" value="" style="ellipse;fillColor=#000000;strokeColor=none;" vertex="1" parent="1">
          <mxGeometry x="280" y="140" width="30" height="30" as="geometry" />
        </mxCell>
        <mxCell id="bED7vvz_2XlA9zILl8WS-5" style="edgeStyle=orthogonalEdgeStyle;rounded=0;orthogonalLoop=1;jettySize=auto;html=1;entryX=0.5;entryY=0;entryDx=0;entryDy=0;" edge="1" parent="1" source="bED7vvz_2XlA9zILl8WS-2" target="bED7vvz_2XlA9zILl8WS-4">
          <mxGeometry relative="1" as="geometry" />
        </mxCell>
        <mxCell id="bED7vvz_2XlA9zILl8WS-2" value="매출 현황 요청" style="html=1;align=center;verticalAlign=top;rounded=1;absoluteArcSize=1;arcSize=10;dashed=0;" vertex="1" parent="1">
          <mxGeometry x="225" y="230" width="140" height="40" as="geometry" />
        </mxCell>
        <mxCell id="bED7vvz_2XlA9zILl8WS-7" style="edgeStyle=orthogonalEdgeStyle;rounded=0;orthogonalLoop=1;jettySize=auto;html=1;entryX=0.5;entryY=0;entryDx=0;entryDy=0;" edge="1" parent="1" source="bED7vvz_2XlA9zILl8WS-4" target="bED7vvz_2XlA9zILl8WS-6">
          <mxGeometry relative="1" as="geometry" />
        </mxCell>
        <mxCell id="bED7vvz_2XlA9zILl8WS-4" value="매출 현황 출력" style="html=1;align=center;verticalAlign=top;rounded=1;absoluteArcSize=1;arcSize=10;dashed=0;" vertex="1" parent="1">
          <mxGeometry x="225" y="320" width="140" height="40" as="geometry" />
        </mxCell>
        <mxCell id="bED7vvz_2XlA9zILl8WS-6" value="" style="ellipse;html=1;shape=endState;fillColor=#000000;strokeColor=#ff0000;" vertex="1" parent="1">
          <mxGeometry x="280" y="430" width="30" height="30" as="geometry" />
        </mxCell>
      </root>
    </mxGraphModel>
  </diagram>
</mxfile>
